<?xml version="1.0" encoding="utf-8"?>
<!-- Generator: Adobe Illustrator 28.1.0, SVG Export Plug-In . SVG Version: 6.00 Build 0)  -->
<svg version="1.1" id="Layer_1" xmlns="http://www.w3.org/2000/svg" xmlns:xlink="http://www.w3.org/1999/xlink" x="0px" y="0px"
	 width="1280px" height="213px" viewBox="0 0 1280 213" style="enable-background:new 0 0 1280 213;" xml:space="preserve">
<style type="text/css">
	.st0{fill-rule:evenodd;clip-rule:evenodd;fill:#FFFFFF;}
	.st1{fill:#FFFFFF;}
</style>
<g>
	<g>
		<path class="st0" d="M1,100.678h223.733L111.996,212.497L1,100.678z M116.159,115.566l-2.501-4.074c0,0-0.148-0.309,0.761-1.062
			c0.906-0.756,1.74-0.598,1.74-0.598h11.572v4.908c0,0-7.412,0-9.08,0c-0.83,0-0.83,0-0.83,0L116.159,115.566z M162.165,129.181
			h7.565c-0.698,6.199-5.133,9.93-11.46,9.93c-7.937,0-12.735-4.864-12.735-12.666c0-7.762,5.264-12.599,11.962-12.599
			c7.333,0,11.436,3.631,12.07,9.802h-7.466c-0.234-2.494-1.8-3.937-4.264-3.937c-2.77,0-4.436,2.37-4.436,7.002
			c0,3.368,0.729,6.528,4.731,6.528C160.67,133.241,161.868,131.48,162.165,129.181z M135.35,149.35
			c4.16,4.989-1.316,7.106-3.454,6.817c0,0-1.178-0.01-3.091-0.013c-0.817,1.197-2.197,1.983-3.763,1.983
			c-1.558,0-2.937-0.787-3.758-1.98c-1.454-0.003-2.973-0.003-4.562-0.003c-0.814,1.197-2.2,1.983-3.762,1.983
			c-1.561,0-2.947-0.824-3.768-2.017c-1.629,0-3.212-0.02-4.76-0.02c-0.815,1.197-2.2,1.987-3.761,1.987
			c-1.563,0-2.894-0.763-3.713-1.96c-2.118,0.01-3.815,0.027-4.862,0.04c-2.812,0.057-7.196-3.025-3.254-7.483l8.136-12.048
			c0,0-0.566-1.506-0.566-2.393c0-2.992,2.434-5.419,5.436-5.419c0.168,0,0.507,0.027,0.507,0.027l5.476-8.29l3.335,4.155
			l-4.592,6.851c0,0,0.706,1.701,0.706,2.676c0,2.992-2.434,5.412-5.432,5.412c-0.264,0-0.612-0.081-0.612-0.081
			c-2.632,3.819-5.659,8.263-6.636,9.533c-1.664,2.495,0.829,2.071,0.829,2.071s0.541-0.067,1.42-0.067
			c0.805-1.251,2.217-2.081,3.822-2.081c1.624,0,2.98,0.877,3.785,2.148c1.481,0,3.056-0.013,4.679-0.013
			c0.81-1.254,2.22-2.084,3.825-2.084c1.62,0,2.985,0.827,3.787,2.098c1.558,0,3.066-0.013,4.467-0.013
			c0.814-1.254,2.225-2.084,3.827-2.084c1.615,0,3.034,0.827,3.839,2.098h0.516c2.499,0-0.042-2.79-0.042-2.79l-5.75-8.532
			c0,0-0.486,0.047-0.736,0.047c-3.002,0-5.434-2.43-5.434-5.412c0-0.975,0.677-2.663,0.677-2.663
			c-4.306-6.666-11.033-16.68-11.033-17.09h-9.157v-4.908c0,0,9.157-0.081,10.742,0c1.291,0.067,1.671,0.827,1.671,0.827
			l11.989,18.441c0,0,0.363-0.027,0.545-0.027c3.004,0,5.436,2.424,5.436,5.419c0,0.995-0.743,2.736-0.743,2.736l0.034-0.074
			C127.607,137.127,134.51,147.703,135.35,149.35z M71.529,114.941l8.6,24.005h-7.832l-0.931-3.167h-7.834l-0.901,3.167h-7.703
			l8.604-24.005H71.529z M69.996,130.781l-2.535-8.599l-2.434,8.599H69.996z M123.578,181.346c0,0.175-0.009,0.343-0.019,0.518
			c-0.276,5.21-4.822,7.752-11.218,7.752c-6.189,0-10.278-3.536-10.611-7.752l0,0c-0.01-0.094-0.019-0.188-0.019-0.283h7.532
			c0.017,0.094,0.042,0.188,0.069,0.283v-0.007c0.203,0.723,0.642,1.271,1.229,1.624c0.637,0.4,1.472,0.595,2.234,0.595
			c1.968,0,3.271-0.632,3.271-1.764c0-0.155-0.03-0.306-0.077-0.447l0,0c-1.113-2.985-13.725-1.086-13.725-9.85
			c0-5.099,4.402-7.664,10.401-7.664c6.666,0,9.698,3.395,10.266,7.6h-7.469c-0.129-0.837-0.563-1.335-1.129-1.634
			c-0.567-0.306-1.269-0.434-2.035-0.434c-1.735,0-2.496,0.497-2.496,1.365C109.781,174.844,123.578,172.612,123.578,181.346z"/>
		<path class="st0" d="M120.468,9.498c0,0-0.38,1.738-2.269,0.459c-0.76-0.531-1.288-2.047-1.288-2.047s1.516-0.071,2.8,0.155
			C120.586,8.216,120.536,8.872,120.468,9.498z M125.239,9.574c-1.593-5.742-8.249-4.913-14.075-4.913
			c-5.752,0-4.084-4.159-4.084-4.159c-6.663,5.827-1.667,10.734-1.667,10.734c-7.49,12.478-5.829,15.727-5.829,15.727
			c6.666,6.659,6.666,14.897,6.666,14.897h-1.671c0-6.58-4.162-14.066-11.651-17.39c-9.08-4.916-18.237,2.493-18.237,2.493
			S10.078,92.435,8.414,94.098c-1.664,1.588-3.331,1.588-4.918,2.42c0,0,9.91,1.667,17.403-4.908
			c18.993-20.715,49.707-50.506,49.707-50.506s1.136-0.528,1.667,0.075c1.133,1.286,0,2.343,0,2.343S22.482,92.435,20.899,94.098
			c-2.498,1.588-4.995,2.42-4.995,2.42c9.08,1.667,16.569-4.908,16.569-4.908l42.218-42.267c0,0,1.14-0.151,1.59,0.455
			c0.683,0.906,0.077,2.042,0.077,2.042s-38.89,38.934-41.388,40.594c-0.831,0.832-5.826,3.25-5.826,3.25
			c9.91,1.662,18.233-6.577,18.233-6.577l33.145-33.115c0,0,1.358-0.072,1.661,0.455c0.528,0.981,0,2.039,0,2.039
			S50.709,88.277,49.875,89.943c-2.498,2.493-6.662,4.155-6.662,4.155s3.335,0,10.821-2.488c7.419-2.501,33.596-30.4,33.596-30.4
			s1.368-0.297,1.815,0.153c0.763,0.76,0.229,1.212,0.229,2.044L65.618,85.783l-4.995,4.16c18.23-4.16,32.305-21.548,32.305-21.548
			c1.664,0,4.995,4.163,4.995,4.163s1.661-4.995,5.822-7.493c4.918-2.491,4.085-7.407,4.085-7.407
			c8.33,2.424,7.496,9.071,7.496,9.071c0.834-2.496,9.15-3.323,9.15-3.323v7.488c-0.83,3.323,0.763,5.815,0.763,5.815
			c10.821-17.462-2.424-41.43-4.921-44.756c-2.498-4.99-2.498-6.651-1.667-12.399c1.667-4.155,10.747-3.326,12.414-2.491
			c2.494,0,3.325,1.659,3.325,1.659C135.223,7.08,125.239,9.574,125.239,9.574z M159.207,94.098
			c-1.587-2.488-3.328-5.669-3.328-5.669s0.077,0.529-0.377,2.799c-0.306,1.437-2.044,2.041-2.044,2.041s-0.985-3.177-2.494-4.158
			c-3.637-2.419-2.501-5.821-2.501-5.821s-1.812,0.227-2.797,2.494c-0.985,2.345-0.531,3.326-0.531,3.326s-2.8-2.491-3.251-4.992
			c-0.605-2.871,0.978-4.456,0.978-4.456s-3.483-1.365-4.313-0.529c-1.661,0.83-3.328,2.494-3.328,2.494s1.667-8.243-0.834-9.903
			c-1.661-1.666-1.661-1.666-1.661-1.666s0.682,1.968-2.494,3.326c-2.649,1.136-3.254,5.594-5.759,6.579
			c0,0.832-2.266-4.916-2.491-6.579c-0.528-3.094,0.605-3.783,0.605-7.103c0,0-3.94,1.886-6.206,2.115
			c-1.361,0.153-3.557,3.328-3.557,3.328s1.815-4.007-0.834-7.49c-1.133-1.511-1.661-3.321-1.661-3.321s-1.67,3.321-3.254,4.985
			c-1.667,1.666-5.826,4.16-6.663,6.661c-1.664,2.487-1.664,4.908-1.664,4.908s-1.664-3.249-2.494-4.083
			c-0.83-0.825-3.177-1.434-3.177-1.434s-0.077,2.57-2.649,5.516c-2.804,3.175-0.76,7.483-0.76,7.483s-5.143,1.133-5.826-0.832
			c-0.377-1.133,0.907-2.871,0.907-2.871s-2.571,0.38-4.232,2.042c-0.833,1.661-1.671,4.158-2.501,5.821
			c-1.664,2.501-3.331,4.989-4.162,4.989c-1.587-0.83-2.346-5.893-2.346-5.893s-8.471,4.231-2.646,10.812c1.513,0,13.315,0,13.315,0
			s0.306-2.651,3.785-5.221c2.871-2.118-0.457-6.35-0.457-6.35s5.752,0,6.582,1.662c0,0-0.83-2.491,0.834-4.16
			c1.664-1.661,2.501-4.987,2.501-4.987s0.83,2.495,1.661,3.327c0.834,0.829,3.328,3.329,3.328,3.329s0.074-3.402,0.837-4.161
			c0.753-0.753,2.491-2.495,2.491-4.991c0-1.585,0-4.083,0-4.083s7.419,4.913,7.419,8.243c0,0,0.83-1.664,2.494-3.329
			c2.501-0.831,4.162-1.587,4.162-1.587s-1.661,3.252,4.995,10.737c0,0,2.041-2.042,2.041-4.535c0-0.832,3.103,0.304,4.541,2.037
			c1.667,1.965,1.667,5.826,1.667,5.826s1.889-2.57,3.325-3.328c1.442-0.757,4.162,0,4.162,0s-1.661,4.163,0.83,7.41
			c2.504,2.491,4.088,4.16,4.088,4.16h14.152C157.621,99.017,160.875,96.518,159.207,94.098z M155.12,39.438
			c0,0,47.217,48.008,53.042,52.997c5.748,4.913,14.905,3.25,14.905,3.25c-1.664,0-3.331-1.588-3.331-1.588
			s-52.202-52.237-68.771-67.134c-15.742-14.892-26.862,7.108-26.862,7.108s3.483,7.71,5.295,13.606
			c2.343,7.567,1.741,16.939,1.741,16.939c19.063,24.04,36.396,24.493,36.396,24.493c-1.664-0.832-3.335-1.662-3.335-1.662
			l-23.981-23.214c0,0-0.605-0.75,0-1.659c0.602-0.909,1.667,0,1.667,0s17.322,16.557,23.985,23.208
			c6.656,7.484,17.4,7.484,18.23,7.484c-0.83,0-6.656-4.99-6.656-4.99l-31.401-30.463c0,0-0.679-1.138-0.074-1.82
			c0.683-0.831,1.664,0,1.664,0s28.221,28.123,33.972,33.949c6.656,5.743,15.736,4.915,15.736,4.915
			c-0.83,0-4.915-2.422-4.915-2.422l-42.298-41.43c0,0-0.908-1.286-0.071-2.114c0.831-0.834,1.738-0.383,1.738-0.383
			s36.467,37.275,43.052,43.102c6.659,5.738,17.4,4.908,15.742,4.076c-1.593,0-1.593-0.829-4.091-1.588
			C204,93.267,153.459,41.86,153.459,41.86s-0.38-0.908,0-1.592C154.142,39.212,155.12,39.438,155.12,39.438z M136.89,94.857
			c-0.83-2.422,0-4.915,0-4.915s-3.331,0.38-4.161,2.493c-1.288,3.178-3.331,3.25-3.331,3.25s0.837-4.911-0.834-6.577
			c-0.834-1.662-2.494-3.326-2.494-3.326s0.377,2.345-0.83,3.326c-2.276,1.817-2.424,1.666-2.424,1.666s-3.331-1.666-4.995-4.992
			c-1.661-2.494-1.661-4.989-1.661-4.989s-2.501,0-3.331,2.495c-0.834,2.494-1.664,4.158-1.664,4.158s-3.335-9.15-5.752-9.15
			c0,0,0.908,1.894,0,3.329c-1.284,2.042-4.084,3.479-2.417,6.802c3.479,6.883,1.661,10.589,1.661,10.589h36.396
			C141.051,99.017,136.89,98.185,136.89,94.857z M100.417,90.775c-5.221-2.647-3.933-5.669-3.933-5.669s-2.347-0.156-2.723,2.341
			c-0.612,3.407-0.121,6.683-0.02,7.298c-0.057-0.259-0.333-1-1.647-2.309c-1.661-1.661-3.254-1.661-3.254-1.661
			s0.834,1.661,0,3.323c-0.83,1.588-2.494,1.588-3.328,3.251c-0.83,1.669,0,1.669,0,1.669h17.403
			C102.914,99.017,103.14,92.134,100.417,90.775z"/>
	</g>
	<g>
		<path class="st1" d="M306.206,198.496l-3.803-26.127c-0.668-4.878-1.139-8.751-1.406-11.429h-0.134
			c-0.534,2.207-1.265,5.216-2.341,8.491l-9.616,29.065h-6.551l-9.152-27.195c-1.209-3.613-2.207-7.219-2.882-10.361h-0.126
			c-0.204,3.739-0.605,7.549-1.202,11.963l-3.072,25.593h-6.284l6.614-45.105h7.479l9.559,28.467
			c0.801,2.27,1.806,5.883,2.608,8.955h0.063c0.801-3.142,1.603-5.954,2.474-8.554l9.756-28.868h7.612l6.818,45.105H306.206"/>
		<path class="st1" d="M331.967,199.1c-9.018,0-14.901-5.223-14.901-16.912c0-9.749,6.15-17.509,16.174-17.509
			c8.484,0,14.972,4.681,14.972,16.638C348.211,191.34,341.794,199.1,331.967,199.1 M332.705,169.691
			c-4.745,0-9.356,3.683-9.356,11.9c0,8.013,3.276,12.427,9.356,12.427c4.948,0,9.222-3.88,9.222-12.364
			C341.927,174.105,338.849,169.691,332.705,169.691z"/>
		<path class="st1" d="M360.547,199.1c-2.53,0-5.279-0.267-7.345-0.872l0.534-5.349c2.137,0.872,4.878,1.336,7.352,1.336
			c4.274,0,7.212-1.933,7.212-5.075c0-7.486-15.436-2.812-15.436-14.501c0-5.679,4.414-9.96,13.229-9.96
			c2.01,0,4.414,0.267,6.418,0.675l-0.464,4.941c-1.94-0.605-4.281-0.998-6.488-0.998c-4.407,0-6.481,1.87-6.481,4.738
			c0,7.352,15.506,3.149,15.506,14.438C374.584,194.552,369.235,199.1,360.547,199.1"/>
		<path class="st1" d="M392.473,199.03c-6.811,0-8.885-2.812-8.885-9.96v-19.112h-6.818v-4.674h6.818v-10.754l6.01-1.673v12.427
			h9.292v4.674h-9.292v16.975c0,5.483,1.075,6.945,4.745,6.945c1.539,0,3.008-0.197,4.21-0.534l0.604,4.948
			C397.218,198.763,394.617,199.03,392.473,199.03"/>
		<polyline class="st1" points="431.681,158.536 431.681,198.496 425.53,198.496 425.53,158.536 412.562,158.536 412.562,153.391 
			444.706,153.391 444.706,158.536 431.681,158.536 		"/>
		<path class="st1" d="M461.463,170.633c-7.015-1.272-10.354,3.873-10.354,14.494v13.369h-6.017v-33.212h5.813
			c0,2.074-0.197,5.152-0.738,7.887h0.134c1.406-4.611,4.815-9.152,11.429-8.491L461.463,170.633"/>
		<path class="st1" d="M488.714,198.496c0-2.003,0.134-5.012,0.534-7.015h-0.134c-1.94,4.541-6.017,7.619-11.696,7.619
			c-7.619,0-9.953-4.752-9.953-10.628v-23.189h5.947v21.382c0,4.674,1.336,7.486,5.679,7.486c5.476,0,9.419-5.609,9.419-12.962
			v-15.907h6.017v33.212H488.714"/>
		<path class="st1" d="M509.871,199.1c-2.537,0-5.279-0.267-7.345-0.872l0.534-5.349c2.137,0.872,4.878,1.336,7.345,1.336
			c4.281,0,7.219-1.933,7.219-5.075c0-7.486-15.436-2.812-15.436-14.501c0-5.679,4.407-9.96,13.229-9.96
			c2.003,0,4.414,0.267,6.417,0.675l-0.471,4.941c-1.94-0.605-4.274-0.998-6.481-0.998c-4.407,0-6.481,1.87-6.481,4.738
			c0,7.352,15.506,3.149,15.506,14.438C523.908,194.552,518.559,199.1,509.871,199.1"/>
		<path class="st1" d="M541.804,199.03c-6.818,0-8.892-2.812-8.892-9.96v-19.112h-6.818v-4.674h6.818v-10.754l6.01-1.673v12.427
			h9.292v4.674h-9.292v16.975c0,5.483,1.075,6.945,4.752,6.945c1.532,0,3.001-0.197,4.203-0.534l0.604,4.948
			C546.542,198.763,543.941,199.03,541.804,199.03"/>
		<path class="st1" d="M580.007,181.788h-21.72c-0.267,8.688,3.276,12.427,10.487,12.427c3.212,0,6.551-0.661,9.489-1.933
			l0.872,4.745c-3.339,1.336-7.352,2.074-11.492,2.074c-10.087,0-15.569-5.349-15.569-17.045c0-9.883,5.546-17.376,14.965-17.376
			c9.292,0,13.165,6.221,13.165,13.636C580.204,179.117,580.141,180.452,580.007,181.788 M566.638,169.227
			c-4.337,0-7.416,3.212-8.147,8.28h15.562C574.187,172.439,571.319,169.227,566.638,169.227z"/>
		<path class="st1" d="M607.652,198.496c0-1.877,0.134-4.815,0.534-6.748l-0.134-0.07c-1.87,4.477-5.947,7.423-11.162,7.423
			c-8.147,0-12.223-5.954-12.223-15.64c0-11.626,6.678-18.641,17.172-18.641c1.799,0,3.606,0.127,5.609,0.337v-15.443h6.017v48.781
			H607.652 M607.448,170.295c-2.003-0.464-4.007-0.731-5.876-0.731c-6.347,0-10.558,3.81-10.558,13.362
			c0,7.141,2.341,11.225,7.345,11.225c6.017,0,9.089-7.015,9.089-12.835V170.295z"/>
		<path class="st1" d="M625.407,199.1c-2.27,0-4.147-1.877-4.147-4.147s1.877-4.14,4.147-4.14c2.334,0,4.14,1.87,4.14,4.14
			S627.741,199.1,625.407,199.1"/>
		<path class="st1" d="M694.685,198.496l-3.81-26.127c-0.668-4.878-1.139-8.751-1.406-11.429h-0.134
			c-0.534,2.207-1.272,5.216-2.334,8.491l-9.623,29.065h-6.551L661.67,171.3c-1.202-3.613-2.2-7.219-2.868-10.361h-0.134
			c-0.204,3.739-0.598,7.549-1.202,11.963l-3.079,25.593h-6.277l6.614-45.105h7.479l9.559,28.467
			c0.801,2.27,1.806,5.883,2.608,8.955h0.07c0.794-3.142,1.596-5.954,2.467-8.554l9.756-28.868h7.619l6.818,45.105H694.685"/>
		<path class="st1" d="M720.44,199.1c-9.025,0-14.901-5.223-14.901-16.912c0-9.749,6.143-17.509,16.167-17.509
			c8.491,0,14.972,4.681,14.972,16.638C736.677,191.34,730.259,199.1,720.44,199.1 M721.171,169.691
			c-4.745,0-9.349,3.683-9.349,11.9c0,8.013,3.276,12.427,9.349,12.427c4.948,0,9.229-3.88,9.229-12.364
			C730.4,174.105,727.321,169.691,721.171,169.691z"/>
		<path class="st1" d="M749.02,199.1c-2.537,0-5.279-0.267-7.352-0.872l0.534-5.349c2.144,0.872,4.885,1.336,7.352,1.336
			c4.281,0,7.219-1.933,7.219-5.075c0-7.486-15.436-2.812-15.436-14.501c0-5.679,4.407-9.96,13.229-9.96
			c2.003,0,4.414,0.267,6.417,0.675l-0.471,4.941c-1.94-0.605-4.281-0.998-6.481-0.998c-4.407,0-6.481,1.87-6.481,4.738
			c0,7.352,15.499,3.149,15.499,14.438C763.049,194.552,757.707,199.1,749.02,199.1"/>
		<path class="st1" d="M780.945,199.03c-6.818,0-8.892-2.812-8.892-9.96v-19.112h-6.811v-4.674h6.811v-10.754l6.017-1.673v12.427
			h9.285v4.674h-9.285v16.975c0,5.483,1.068,6.945,4.745,6.945c1.532,0,3.001-0.197,4.21-0.534l0.597,4.948
			C785.69,198.763,783.082,199.03,780.945,199.03"/>
		<path class="st1" d="M825.291,199.03c-14.501,0-20.511-9.222-20.511-21.987c0-13.763,6.811-24.053,22.043-24.053
			c3.472,0,7.156,0.471,10.361,1.406l-1.005,5.609c-3.142-1.068-6.614-1.736-10.016-1.736c-10.29,0-14.705,7.887-14.705,17.769
			c0,11.099,4.808,17.516,15.302,17.516c3.268,0,7.219-0.942,9.89-2.277l0.998,5.342C834.246,198.025,829.832,199.03,825.291,199.03
			"/>
		<path class="st1" d="M847.988,158.669c-2.2,0-4.007-1.673-4.007-3.873c0-2.207,1.806-3.943,4.007-3.943
			c2.214,0,4.014,1.736,4.014,3.943C852.002,156.933,850.202,158.669,847.988,158.669 M844.98,165.284h6.024v33.212h-6.024V165.284z
			"/>
		<path class="st1" d="M871.24,199.03c-6.818,0-8.892-2.812-8.892-9.96v-19.112h-6.818v-4.674h6.818v-10.754l6.017-1.673v12.427
			h9.285v4.674h-9.285v16.975c0,5.483,1.068,6.945,4.738,6.945c1.539,0,3.008-0.197,4.217-0.534l0.597,4.948
			C875.978,198.763,873.37,199.03,871.24,199.03"/>
		<path class="st1" d="M909.436,181.788h-21.72c-0.267,8.688,3.276,12.427,10.501,12.427c3.205,0,6.544-0.661,9.482-1.933
			l0.872,4.745c-3.339,1.336-7.352,2.074-11.499,2.074c-10.087,0-15.562-5.349-15.562-17.045c0-9.883,5.546-17.376,14.972-17.376
			c9.285,0,13.158,6.221,13.158,13.636C909.64,179.117,909.576,180.452,909.436,181.788 M896.074,169.227
			c-4.344,0-7.416,3.212-8.147,8.28h15.569C903.623,172.439,900.755,169.227,896.074,169.227z"/>
		<path class="st1" d="M937.088,198.496c0-1.877,0.126-4.815,0.534-6.748l-0.141-0.07c-1.863,4.477-5.94,7.423-11.148,7.423
			c-8.161,0-12.238-5.954-12.238-15.64c0-11.626,6.692-18.641,17.179-18.641c1.806,0,3.606,0.127,5.616,0.337v-15.443h6.01v48.781
			H937.088 M936.891,170.295c-2.01-0.464-4.021-0.731-5.883-0.731c-6.354,0-10.558,3.81-10.558,13.362
			c0,7.141,2.341,11.225,7.352,11.225c6.01,0,9.089-7.015,9.089-12.835V170.295z"/>
		<path class="st1" d="M954.843,199.1c-2.27,0-4.147-1.877-4.147-4.147s1.877-4.14,4.147-4.14c2.334,0,4.14,1.87,4.14,4.14
			S957.177,199.1,954.843,199.1"/>
		<path class="st1" d="M1024.121,198.496l-3.81-26.127c-0.668-4.878-1.132-8.751-1.406-11.429h-0.133
			c-0.534,2.207-1.272,5.216-2.334,8.491l-9.623,29.065h-6.551l-9.159-27.195c-1.195-3.613-2.2-7.219-2.868-10.361h-0.134
			c-0.204,3.739-0.597,7.549-1.202,11.963l-3.079,25.593h-6.277l6.614-45.105h7.486l9.552,28.467
			c0.801,2.27,1.806,5.883,2.608,8.955h0.07c0.794-3.142,1.596-5.954,2.467-8.554l9.756-28.868h7.619l6.818,45.105H1024.121"/>
		<path class="st1" d="M1049.875,199.1c-9.018,0-14.894-5.223-14.894-16.912c0-9.749,6.143-17.509,16.16-17.509
			c8.491,0,14.972,4.681,14.972,16.638C1066.112,191.34,1059.695,199.1,1049.875,199.1 M1050.606,169.691
			c-4.745,0-9.349,3.683-9.349,11.9c0,8.013,3.276,12.427,9.349,12.427c4.948,0,9.229-3.88,9.229-12.364
			C1059.835,174.105,1056.757,169.691,1050.606,169.691z"/>
		<path class="st1" d="M1078.455,199.1c-2.537,0-5.279-0.267-7.352-0.872l0.534-5.349c2.144,0.872,4.885,1.336,7.352,1.336
			c4.281,0,7.219-1.933,7.219-5.075c0-7.486-15.436-2.812-15.436-14.501c0-5.679,4.407-9.96,13.229-9.96
			c2.003,0,4.414,0.267,6.417,0.675l-0.471,4.941c-1.933-0.605-4.274-0.998-6.481-0.998c-4.407,0-6.481,1.87-6.481,4.738
			c0,7.352,15.499,3.149,15.499,14.438C1092.485,194.552,1087.143,199.1,1078.455,199.1"/>
		<path class="st1" d="M1110.381,199.03c-6.818,0-8.885-2.812-8.885-9.96v-19.112h-6.818v-4.674h6.818v-10.754l6.01-1.673v12.427
			h9.285v4.674h-9.285v16.975c0,5.483,1.068,6.945,4.745,6.945c1.539,0,3.008-0.197,4.21-0.534l0.597,4.948
			C1115.126,198.763,1112.518,199.03,1110.381,199.03"/>
		<path class="st1" d="M1158.537,198.496l-14.768-20.18h-0.801v20.18h-6.15v-45.105c3.072-0.197,6.347-0.267,11.296-0.267
			c8.885,0,15.302,3.142,15.302,11.767c0,7.676-6.08,12.153-13.236,12.687c1.343,1.61,2.741,3.346,3.88,4.815l12.294,16.103
			H1158.537 M1147.044,158.135c-1.539,0-2.875,0.063-4.077,0.134v15.372c0.668,0.063,2.003,0.127,3.81,0.127
			c6.481,0,10.22-3.276,10.22-8.083C1156.997,160.272,1153.595,158.135,1147.044,158.135z"/>
		<path class="st1" d="M1196.001,181.788h-21.72c-0.267,8.688,3.276,12.427,10.494,12.427c3.205,0,6.551-0.661,9.489-1.933
			l0.872,4.745c-3.346,1.336-7.352,2.074-11.5,2.074c-10.094,0-15.569-5.349-15.569-17.045c0-9.883,5.546-17.376,14.972-17.376
			c9.285,0,13.158,6.221,13.158,13.636C1196.198,179.117,1196.135,180.452,1196.001,181.788 M1182.632,169.227
			c-4.344,0-7.409,3.212-8.147,8.28h15.569C1190.188,172.439,1187.314,169.227,1182.632,169.227z"/>
		<path class="st1" d="M1221.306,198.496c0-2.341,0-4.745,0.337-6.621h-0.134c-1.603,4.077-5.813,7.226-11.296,7.226
			c-5.476,0-9.215-3.613-9.215-8.962c0-7.141,7.282-11.422,19.977-11.422v-1.532c0-5.279-1.8-7.823-7.015-7.823
			c-3.142,0-7.148,1.075-10.023,2.404l-1.132-4.745c3.205-1.336,7.612-2.404,11.956-2.404c9.285,0,12.223,4.477,12.223,11.626
			v12.694c0,3.142,0.07,6.685,0.204,9.559H1221.306 M1220.976,182.926c-10.888,0-14.037,3.008-14.037,6.347
			c0,2.868,2.01,5.075,5.082,5.075c5.349,0,8.955-5.342,8.955-10.558V182.926z"/>
		<path class="st1" d="M1257.105,198.496c0-1.877,0.134-4.815,0.534-6.748l-0.134-0.07c-1.87,4.477-5.946,7.423-11.162,7.423
			c-8.147,0-12.224-5.954-12.224-15.64c0-11.626,6.685-18.641,17.172-18.641c1.807,0,3.606,0.127,5.616,0.337v-15.443h6.01v48.781
			H1257.105 M1256.908,170.295c-2.01-0.464-4.014-0.731-5.883-0.731c-6.347,0-10.557,3.81-10.557,13.362
			c0,7.141,2.341,11.225,7.352,11.225c6.01,0,9.089-7.015,9.089-12.835V170.295z"/>
		<path class="st1" d="M1274.867,199.1c-2.277,0-4.147-1.877-4.147-4.147s1.87-4.14,4.147-4.14c2.334,0,4.133,1.87,4.133,4.14
			S1277.201,199.1,1274.867,199.1"/>
	</g>
	<g>
		<path class="st1" d="M333.148,115.469l-8.54-24.095h-43.77l-8.54,24.095h-14.339l37.366-102.947h15.857l37.676,102.947H333.148
			 M307.218,41.65c-1.828-5.033-3.205-9.602-4.421-14.03h-0.302c-1.223,4.428-2.594,8.997-4.274,13.728L284.346,80.24h36.6
			L307.218,41.65z"/>
		<path class="st1" d="M395.966,116.692c-33.1,0-46.827-21.052-46.827-50.18c0-31.42,15.555-54.904,50.335-54.904
			c7.929,0,16.321,1.068,23.639,3.198l-2.284,12.814c-7.17-2.439-15.105-3.964-22.879-3.964c-23.491,0-33.557,17.994-33.557,40.571
			c0,25.318,10.986,39.96,34.927,39.96c7.472,0,16.476-2.137,22.57-5.187l2.291,12.202
			C416.407,114.401,406.334,116.692,395.966,116.692"/>
		<path class="st1" d="M456.177,116.847c-8.386,0-16.167-1.068-22.577-2.903l1.68-13.418c6.558,2.594,14.03,4.119,21.656,4.119
			c11.9,0,22.268-4.885,22.268-17.537c0-23.189-46.518-14.037-46.518-46.827c0-16.926,12.814-29.128,35.996-29.128
			c5.947,0,12.807,0.604,18.606,1.982l-1.68,12.35c-5.49-1.673-11.745-2.741-17.685-2.741c-14.03,0-20.743,6.403-20.743,16.012
			c0,22.113,47.13,14.185,47.13,46.518C494.309,103.724,479.204,116.847,456.177,116.847"/>
		<path class="st1" d="M547.343,74.293c-3.205,0-6.41-0.155-9.461-0.457v41.633h-9.763V12.522
			c7.015-0.302,14.944-0.457,23.491-0.457c22.718,0,35.075,11.9,35.075,28.826C586.685,61.022,569.302,74.293,547.343,74.293
			 M549.775,20.149c-4.73,0-8.386,0-11.893,0.302v44.993c3.051,0.457,6.558,0.766,10.22,0.766
			c17.692-0.155,28.362-9.609,28.362-23.639C576.464,27.93,567.777,20.149,549.775,20.149z"/>
		<path class="st1" d="M650.719,115.469c0-5.335,0.45-12.962,1.371-17.692l-0.309-0.148c-4.267,11.591-14.03,19.063-27.448,19.063
			c-17.537,0-22.879-10.832-22.879-24.25V39.675h9.609V88.78c0,12.659,3.36,20.131,15.401,20.131
			c14.339,0,24.405-13.875,24.405-33.093V39.675h9.609v75.794H650.719"/>
		<path class="st1" d="M711.232,116.39c-10.066,0-16.926-0.921-24.552-2.748V4.136h9.609v39.805c0,4.119-0.457,9.911-1.371,13.728
			l0.302,0.155c4.267-12.202,14.487-19.372,26.535-19.372c17.847,0,28.067,12.048,28.067,35.686
			C749.821,101.594,734.413,116.39,711.232,116.39 M720.229,46.226c-16.314,0-23.941,19.07-23.941,32.643v27.603
			c4.73,1.68,9.763,2.291,15.864,2.291c16.617,0,27.603-9.918,27.603-33.711C739.755,57.058,733.647,46.226,720.229,46.226z"/>
		<rect x="768.701" y="4.136" class="st1" width="9.609" height="111.333"/>
		<path class="st1" d="M809.413,21.976c-3.81,0-6.867-3.051-6.867-6.86c0-3.817,3.058-6.867,6.867-6.867
			c3.81,0,6.86,2.903,6.86,6.867C816.273,18.778,813.223,21.976,809.413,21.976 M804.528,39.675h9.616v75.801h-9.616V39.675z"/>
		<path class="st1" d="M865.223,116.39c-16.012,0-32.488-6.867-32.488-36.15c0-25.164,12.505-41.485,35.539-41.485
			c7.626,0,14.641,1.223,20.131,3.507l-2.137,7.936c-5.187-1.989-12.35-3.817-19.52-3.817c-15.253,0-23.793,13.418-23.793,31.877
			c0,16.321,4.724,30.042,24.243,30.042c7.177,0,13.882-1.525,19.681-4.112l1.989,7.774
			C882.149,114.857,873.454,116.39,865.223,116.39"/>
		<path class="st1" d="M945.115,115.469c0-6.101,0.155-12.202,0.914-16.624l-0.302-0.148c-3.662,9.911-13.573,17.994-26.844,17.994
			c-11.745,0-20.588-7.472-20.588-19.674c0-15.098,16.019-25.621,46.673-25.621v-4.119c0-14.185-4.274-21.052-17.847-21.052
			c-7.324,0-16.476,2.594-22.732,5.644l-2.284-7.929c7.17-3.205,16.778-5.49,26.387-5.49c19.674,0,26.078,10.368,26.078,26.387
			v27.146c0,7.774,0.162,16.624,0.309,23.484H945.115 M944.967,78.714c-28.678,0-36.909,8.238-36.909,16.778
			c0,7.626,5.18,13.271,13.271,13.271c14.177,0,23.639-14.339,23.639-28.221V78.714z"/>
		<path class="st1" d="M1000.75,116.537c-14.789,0-18.908-6.706-18.908-21.959V47.295h-17.39v-7.619h17.39V14.047l9.461-2.594
			v28.221h23.329v7.619h-23.329v42.554c0,14.487,2.587,18.149,12.048,18.149c3.964,0,7.626-0.457,10.522-1.223l1.371,8.238
			C1011.124,115.926,1005.48,116.537,1000.75,116.537"/>
		<path class="st1" d="M1037.04,21.976c-3.81,0-6.867-3.051-6.867-6.86c0-3.817,3.058-6.867,6.867-6.867
			c3.81,0,6.86,2.903,6.86,6.867C1043.901,18.778,1040.85,21.976,1037.04,21.976 M1032.155,39.675h9.609v75.801h-9.609V39.675z"/>
		<path class="st1" d="M1092.998,116.692c-20.131,0-32.938-12.357-32.938-38.892c0-21.2,12.807-39.348,35.539-39.348
			c17.685,0,33.093,9.756,33.093,37.978C1128.692,98.536,1115.266,116.692,1092.998,116.692 M1094.524,46.226
			c-12.505,0-24.398,9.609-24.398,30.815c0,20.131,8.842,31.722,24.552,31.722c12.505,0,24.095-9.609,24.095-31.877
			C1118.774,57.824,1110.543,46.226,1094.524,46.226z"/>
		<path class="st1" d="M1196.683,115.469V66.357c0-12.652-3.507-20.131-15.401-20.131c-14.339,0-24.405,13.882-24.405,33.1v36.143
			h-9.609V39.675h9.763c0,5.335-0.464,12.961-1.371,17.685l0.302,0.155c4.274-11.591,14.037-19.063,27.455-19.063
			c17.537,0,22.88,10.825,22.88,24.25v52.767H1196.683"/>
		<path class="st1" d="M1243.785,116.692c-5.799,0-12.202-0.612-16.933-1.982l1.378-9.152c4.878,1.828,11.436,2.896,17.235,2.896
			c11.281,0,19.52-5.335,19.52-13.875c0-19.674-38.435-7.17-38.435-34.47c0-12.512,9.918-21.656,28.678-21.656
			c4.878,0,10.67,0.612,15.246,1.673l-1.216,8.238c-4.73-1.371-10.073-2.284-15.407-2.284c-11.746,0-17.544,5.026-17.544,12.961
			c0,19.674,38.589,7.626,38.589,34.161C1274.895,106.17,1263.304,116.692,1243.785,116.692"/>
	</g>
</g>
</svg>
