<svg width="85" height="17" viewBox="0 0 85 17" fill="none" xmlns="http://www.w3.org/2000/svg">
<rect width="85" height="17" rx="4" fill="url(#paint0_radial_903_5726)"/>
<path d="M9.9458 11.2432V12.5H5.7832V11.2432H9.9458ZM6.30957 4.67969V12.5H4.69824V4.67969H6.30957ZM9.40332 7.86475V9.08936H5.7832V7.86475H9.40332ZM9.94043 4.67969V5.94189H5.7832V4.67969H9.94043ZM14.2738 11.2324V4.25H15.8314V12.5H14.4295L14.2738 11.2324ZM10.5999 9.66406V9.55127C10.5999 9.10726 10.6501 8.70443 10.7503 8.34277C10.8506 7.97754 10.9974 7.66423 11.1908 7.40283C11.3841 7.14144 11.6222 6.93913 11.9051 6.7959C12.188 6.65267 12.5103 6.58105 12.8719 6.58105C13.2121 6.58105 13.5093 6.65267 13.7635 6.7959C14.0213 6.93913 14.2398 7.14323 14.4188 7.4082C14.6014 7.6696 14.7482 7.97933 14.8592 8.3374C14.9702 8.69189 15.0508 9.0804 15.1009 9.50293V9.75C15.0508 10.1546 14.9702 10.5306 14.8592 10.8779C14.7482 11.2253 14.6014 11.5296 14.4188 11.791C14.2398 12.0488 14.0213 12.2493 13.7635 12.3926C13.5057 12.5358 13.2049 12.6074 12.8612 12.6074C12.4995 12.6074 12.1773 12.534 11.8944 12.3872C11.6151 12.2404 11.3787 12.0345 11.1854 11.7695C10.9956 11.5046 10.8506 11.193 10.7503 10.835C10.6501 10.4769 10.5999 10.0866 10.5999 9.66406ZM12.1468 9.55127V9.66406C12.1468 9.90397 12.1647 10.1278 12.2005 10.3354C12.2399 10.5431 12.3026 10.7275 12.3885 10.8887C12.478 11.0462 12.5926 11.1698 12.7323 11.2593C12.8755 11.3452 13.0492 11.3882 13.2533 11.3882C13.5182 11.3882 13.7367 11.3291 13.9085 11.2109C14.0804 11.0892 14.2111 10.9227 14.3006 10.7114C14.3937 10.5002 14.4474 10.2567 14.4618 9.98096V9.27734C14.451 9.05176 14.4188 8.84945 14.3651 8.67041C14.3149 8.48779 14.2398 8.33203 14.1395 8.20312C14.0428 8.07422 13.9211 7.97396 13.7743 7.90234C13.631 7.83073 13.4609 7.79492 13.264 7.79492C13.0635 7.79492 12.8916 7.84147 12.7484 7.93457C12.6051 8.02409 12.4888 8.14762 12.3993 8.30518C12.3133 8.46273 12.2489 8.64893 12.2059 8.86377C12.1665 9.07503 12.1468 9.3042 12.1468 9.55127ZM18.8327 6.68848V12.5H17.2804V6.68848H18.8327ZM17.1838 5.17383C17.1838 4.94824 17.2625 4.76204 17.4201 4.61523C17.5776 4.46842 17.7889 4.39502 18.0539 4.39502C18.3153 4.39502 18.5248 4.46842 18.6823 4.61523C18.8434 4.76204 18.924 4.94824 18.924 5.17383C18.924 5.39941 18.8434 5.58561 18.6823 5.73242C18.5248 5.87923 18.3153 5.95264 18.0539 5.95264C17.7889 5.95264 17.5776 5.87923 17.4201 5.73242C17.2625 5.58561 17.1838 5.39941 17.1838 5.17383ZM23.1177 6.68848V7.78418H19.7339V6.68848H23.1177ZM20.5718 5.25439H22.1187V10.749C22.1187 10.9173 22.1402 11.0462 22.1831 11.1357C22.2297 11.2253 22.2977 11.2879 22.3872 11.3237C22.4767 11.356 22.5895 11.3721 22.7256 11.3721C22.8223 11.3721 22.9082 11.3685 22.9834 11.3613C23.0622 11.3506 23.1284 11.3398 23.1821 11.3291L23.1875 12.4678C23.055 12.5107 22.9118 12.5448 22.7578 12.5698C22.6039 12.5949 22.4338 12.6074 22.2476 12.6074C21.9074 12.6074 21.6102 12.5519 21.356 12.4409C21.1053 12.3263 20.912 12.1437 20.7759 11.8931C20.6398 11.6424 20.5718 11.313 20.5718 10.9048V5.25439ZM23.7718 9.65332V9.54053C23.7718 9.11442 23.8327 8.72233 23.9545 8.36426C24.0762 8.0026 24.2534 7.68929 24.4862 7.42432C24.7189 7.15934 25.0054 6.95345 25.3456 6.80664C25.6857 6.65625 26.076 6.58105 26.5165 6.58105C26.9569 6.58105 27.349 6.65625 27.6927 6.80664C28.0365 6.95345 28.3247 7.15934 28.5575 7.42432C28.7938 7.68929 28.9728 8.0026 29.0946 8.36426C29.2163 8.72233 29.2772 9.11442 29.2772 9.54053V9.65332C29.2772 10.0758 29.2163 10.4679 29.0946 10.8296C28.9728 11.1877 28.7938 11.501 28.5575 11.7695C28.3247 12.0345 28.0383 12.2404 27.6981 12.3872C27.3579 12.534 26.9676 12.6074 26.5272 12.6074C26.0868 12.6074 25.6947 12.534 25.3509 12.3872C25.0108 12.2404 24.7225 12.0345 24.4862 11.7695C24.2534 11.501 24.0762 11.1877 23.9545 10.8296C23.8327 10.4679 23.7718 10.0758 23.7718 9.65332ZM25.3187 9.54053V9.65332C25.3187 9.89681 25.3402 10.1242 25.3832 10.3354C25.4261 10.5467 25.4942 10.7329 25.5873 10.894C25.6839 11.0516 25.8093 11.1751 25.9632 11.2646C26.1172 11.3542 26.3052 11.3989 26.5272 11.3989C26.7421 11.3989 26.9265 11.3542 27.0804 11.2646C27.2344 11.1751 27.3579 11.0516 27.451 10.894C27.5441 10.7329 27.6122 10.5467 27.6551 10.3354C27.7017 10.1242 27.725 9.89681 27.725 9.65332V9.54053C27.725 9.3042 27.7017 9.08219 27.6551 8.87451C27.6122 8.66325 27.5423 8.47705 27.4457 8.31592C27.3526 8.1512 27.229 8.0223 27.0751 7.9292C26.9211 7.8361 26.7349 7.78955 26.5165 7.78955C26.298 7.78955 26.1118 7.8361 25.9579 7.9292C25.8075 8.0223 25.6839 8.1512 25.5873 8.31592C25.4942 8.47705 25.4261 8.66325 25.3832 8.87451C25.3402 9.08219 25.3187 9.3042 25.3187 9.54053ZM31.9348 7.95605V12.5H30.3879V6.68848H31.8435L31.9348 7.95605ZM33.6857 6.65088L33.6589 8.08496C33.5837 8.07422 33.4924 8.06527 33.385 8.05811C33.2811 8.04736 33.1862 8.04199 33.1003 8.04199C32.8819 8.04199 32.6921 8.07064 32.531 8.12793C32.3734 8.18164 32.2409 8.26221 32.1335 8.36963C32.0297 8.47705 31.9509 8.60775 31.8972 8.76172C31.847 8.91569 31.8184 9.09115 31.8112 9.28809L31.4997 9.19141C31.4997 8.81543 31.5373 8.46989 31.6125 8.15479C31.6877 7.8361 31.7969 7.55859 31.9401 7.32227C32.0869 7.08594 32.266 6.90332 32.4772 6.77441C32.6885 6.64551 32.9302 6.58105 33.2023 6.58105C33.2883 6.58105 33.376 6.58822 33.4655 6.60254C33.555 6.61328 33.6284 6.62939 33.6857 6.65088ZM37.7183 10.894C37.7183 10.783 37.6861 10.6828 37.6216 10.5933C37.5572 10.5037 37.4372 10.4214 37.2618 10.3462C37.0899 10.2674 36.841 10.1958 36.5152 10.1313C36.2216 10.0669 35.9476 9.98633 35.6934 9.88965C35.4427 9.78939 35.2243 9.66943 35.0381 9.52979C34.8555 9.39014 34.7123 9.22542 34.6084 9.03564C34.5046 8.84229 34.4527 8.62207 34.4527 8.375C34.4527 8.13151 34.5046 7.90234 34.6084 7.6875C34.7159 7.47266 34.868 7.28288 35.065 7.11816C35.2655 6.94987 35.509 6.81917 35.7954 6.72607C36.0855 6.62939 36.4113 6.58105 36.773 6.58105C37.2779 6.58105 37.7111 6.66162 38.0728 6.82275C38.438 6.98389 38.7173 7.20589 38.9107 7.48877C39.1076 7.76807 39.2061 8.08675 39.2061 8.44482H37.6592C37.6592 8.29443 37.627 8.16016 37.5625 8.04199C37.5017 7.92025 37.405 7.82536 37.2725 7.75732C37.1436 7.68571 36.9753 7.6499 36.7676 7.6499C36.5957 7.6499 36.4471 7.68034 36.3218 7.74121C36.1965 7.7985 36.0998 7.87728 36.0318 7.97754C35.9673 8.07422 35.9351 8.18164 35.9351 8.2998C35.9351 8.38932 35.953 8.46989 35.9888 8.5415C36.0282 8.60954 36.0909 8.6722 36.1768 8.72949C36.2627 8.78678 36.3737 8.84049 36.5098 8.89062C36.6495 8.93717 36.8213 8.98014 37.0254 9.01953C37.4444 9.10547 37.8186 9.21826 38.148 9.35791C38.4774 9.49398 38.7388 9.68018 38.9322 9.9165C39.1255 10.1493 39.2222 10.4554 39.2222 10.835C39.2222 11.0928 39.1649 11.3291 39.0503 11.5439C38.9357 11.7588 38.771 11.9468 38.5562 12.1079C38.3413 12.2655 38.0835 12.389 37.7828 12.4785C37.4856 12.5645 37.1508 12.6074 36.7784 12.6074C36.2377 12.6074 35.7793 12.5107 35.4034 12.3174C35.031 12.124 34.7481 11.8787 34.5547 11.5815C34.3649 11.2808 34.2701 10.9728 34.2701 10.6577H35.7364C35.7435 10.869 35.7972 11.0391 35.8975 11.168C36.0013 11.2969 36.132 11.39 36.2896 11.4473C36.4507 11.5046 36.6244 11.5332 36.8106 11.5332C37.0111 11.5332 37.1776 11.5063 37.3101 11.4526C37.4426 11.3953 37.5428 11.3201 37.6109 11.2271C37.6825 11.1304 37.7183 11.0194 37.7183 10.894ZM41.7992 4.25V5.06641C41.7992 5.29915 41.7544 5.53906 41.6649 5.78613C41.579 6.0332 41.4626 6.26774 41.3158 6.48975C41.169 6.70817 41.0079 6.89437 40.8324 7.04834L40.1073 6.62939C40.2398 6.41813 40.3526 6.18896 40.4457 5.94189C40.5388 5.69124 40.5853 5.4012 40.5853 5.07178V4.25H41.7992ZM50.6002 9.90576H52.2061C52.1739 10.4321 52.0289 10.8994 51.7711 11.3076C51.5168 11.7158 51.1605 12.0345 50.7022 12.2637C50.2475 12.4928 49.6996 12.6074 49.0587 12.6074C48.5573 12.6074 48.108 12.5215 47.7105 12.3496C47.313 12.1742 46.9729 11.9235 46.69 11.5977C46.4107 11.2718 46.1976 10.8779 46.0508 10.416C45.904 9.9541 45.8306 9.43669 45.8306 8.86377V8.32129C45.8306 7.74837 45.9058 7.23096 46.0562 6.76904C46.2102 6.30355 46.4286 5.90788 46.7115 5.58203C46.9979 5.25618 47.3399 5.00553 47.7374 4.83008C48.1348 4.65462 48.5788 4.56689 49.0694 4.56689C49.7211 4.56689 50.2707 4.68506 50.7183 4.92139C51.1695 5.15771 51.5186 5.48356 51.7657 5.89893C52.0163 6.31429 52.1667 6.78695 52.2169 7.31689H50.6055C50.5876 7.00179 50.525 6.73503 50.4175 6.5166C50.3101 6.2946 50.1472 6.12809 49.9288 6.01709C49.7139 5.90251 49.4275 5.84521 49.0694 5.84521C48.8008 5.84521 48.5663 5.89535 48.3658 5.99561C48.1653 6.09587 47.997 6.24805 47.8609 6.45215C47.7248 6.65625 47.6228 6.91406 47.5547 7.22559C47.4903 7.53353 47.4581 7.89518 47.4581 8.31055V8.86377C47.4581 9.26839 47.4885 9.62467 47.5494 9.93262C47.6102 10.237 47.7033 10.4948 47.8287 10.7061C47.9576 10.9137 48.1223 11.0713 48.3228 11.1787C48.5269 11.2826 48.7722 11.3345 49.0587 11.3345C49.3952 11.3345 49.6727 11.2808 49.8912 11.1733C50.1096 11.0659 50.2761 10.9066 50.3907 10.6953C50.5088 10.484 50.5787 10.2209 50.6002 9.90576ZM54.8368 4.25V12.5H53.2899V4.25H54.8368ZM54.6166 9.39014H54.1923C54.1959 8.98551 54.2496 8.61312 54.3534 8.27295C54.4573 7.9292 54.6059 7.632 54.7992 7.38135C54.9926 7.12712 55.2235 6.93018 55.4921 6.79053C55.7642 6.65088 56.065 6.58105 56.3944 6.58105C56.6809 6.58105 56.9405 6.62223 57.1732 6.70459C57.4096 6.78337 57.6119 6.91227 57.7802 7.09131C57.952 7.26676 58.0845 7.49772 58.1776 7.78418C58.2707 8.07064 58.3173 8.41797 58.3173 8.82617V12.5H56.7597V8.81543C56.7597 8.55762 56.7221 8.35531 56.6469 8.2085C56.5753 8.05811 56.4696 7.95247 56.33 7.8916C56.1939 7.82715 56.0256 7.79492 55.8251 7.79492C55.6031 7.79492 55.4133 7.8361 55.2558 7.91846C55.1018 8.00081 54.9783 8.1154 54.8852 8.26221C54.7921 8.40544 54.724 8.57373 54.6811 8.76709C54.6381 8.96045 54.6166 9.16813 54.6166 9.39014ZM59.4065 9.65332V9.54053C59.4065 9.11442 59.4674 8.72233 59.5891 8.36426C59.7108 8.0026 59.8881 7.68929 60.1208 7.42432C60.3536 7.15934 60.64 6.95345 60.9802 6.80664C61.3204 6.65625 61.7107 6.58105 62.1511 6.58105C62.5915 6.58105 62.9836 6.65625 63.3274 6.80664C63.6711 6.95345 63.9594 7.15934 64.1921 7.42432C64.4285 7.68929 64.6075 8.0026 64.7292 8.36426C64.851 8.72233 64.9119 9.11442 64.9119 9.54053V9.65332C64.9119 10.0758 64.851 10.4679 64.7292 10.8296C64.6075 11.1877 64.4285 11.501 64.1921 11.7695C63.9594 12.0345 63.6729 12.2404 63.3328 12.3872C62.9926 12.534 62.6023 12.6074 62.1619 12.6074C61.7214 12.6074 61.3293 12.534 60.9856 12.3872C60.6454 12.2404 60.3572 12.0345 60.1208 11.7695C59.8881 11.501 59.7108 11.1877 59.5891 10.8296C59.4674 10.4679 59.4065 10.0758 59.4065 9.65332ZM60.9534 9.54053V9.65332C60.9534 9.89681 60.9748 10.1242 61.0178 10.3354C61.0608 10.5467 61.1288 10.7329 61.2219 10.894C61.3186 11.0516 61.4439 11.1751 61.5979 11.2646C61.7519 11.3542 61.9398 11.3989 62.1619 11.3989C62.3767 11.3989 62.5611 11.3542 62.7151 11.2646C62.869 11.1751 62.9926 11.0516 63.0857 10.894C63.1788 10.7329 63.2468 10.5467 63.2898 10.3354C63.3363 10.1242 63.3596 9.89681 63.3596 9.65332V9.54053C63.3596 9.3042 63.3363 9.08219 63.2898 8.87451C63.2468 8.66325 63.177 8.47705 63.0803 8.31592C62.9872 8.1512 62.8637 8.0223 62.7097 7.9292C62.5557 7.8361 62.3695 7.78955 62.1511 7.78955C61.9327 7.78955 61.7465 7.8361 61.5925 7.9292C61.4421 8.0223 61.3186 8.1512 61.2219 8.31592C61.1288 8.47705 61.0608 8.66325 61.0178 8.87451C60.9748 9.08219 60.9534 9.3042 60.9534 9.54053ZM67.6553 6.68848V12.5H66.1031V6.68848H67.6553ZM66.0064 5.17383C66.0064 4.94824 66.0852 4.76204 66.2428 4.61523C66.4003 4.46842 66.6116 4.39502 66.8765 4.39502C67.1379 4.39502 67.3474 4.46842 67.505 4.61523C67.6661 4.76204 67.7467 4.94824 67.7467 5.17383C67.7467 5.39941 67.6661 5.58561 67.505 5.73242C67.3474 5.87923 67.1379 5.95264 66.8765 5.95264C66.6116 5.95264 66.4003 5.87923 66.2428 5.73242C66.0852 5.58561 66.0064 5.39941 66.0064 5.17383ZM71.4946 11.3989C71.6843 11.3989 71.8526 11.3631 71.9994 11.2915C72.1462 11.2163 72.2608 11.1125 72.3432 10.98C72.4291 10.8439 72.4739 10.6846 72.4775 10.502H73.933C73.9294 10.9102 73.8202 11.2736 73.6054 11.5923C73.3905 11.9074 73.1023 12.1562 72.7406 12.3389C72.379 12.5179 71.9744 12.6074 71.5268 12.6074C71.0756 12.6074 70.6817 12.5322 70.3451 12.3818C70.0121 12.2314 69.7346 12.0238 69.5126 11.7588C69.2906 11.4902 69.1241 11.1787 69.0131 10.8242C68.9021 10.4661 68.8466 10.083 68.8466 9.6748V9.51904C68.8466 9.10726 68.9021 8.72412 69.0131 8.36963C69.1241 8.01156 69.2906 7.70003 69.5126 7.43506C69.7346 7.1665 70.0121 6.95703 70.3451 6.80664C70.6781 6.65625 71.0684 6.58105 71.516 6.58105C71.9923 6.58105 72.4094 6.67236 72.7675 6.85498C73.1292 7.0376 73.412 7.29899 73.6161 7.63916C73.8238 7.97575 73.9294 8.375 73.933 8.83691H72.4775C72.4739 8.64355 72.4327 8.4681 72.3539 8.31055C72.2787 8.15299 72.1677 8.02767 72.0209 7.93457C71.8777 7.83789 71.7004 7.78955 71.4892 7.78955C71.2636 7.78955 71.0792 7.83789 70.936 7.93457C70.7927 8.02767 70.6817 8.15658 70.603 8.32129C70.5242 8.48242 70.4687 8.66683 70.4364 8.87451C70.4078 9.07861 70.3935 9.29346 70.3935 9.51904V9.6748C70.3935 9.90039 70.4078 10.117 70.4364 10.3247C70.4651 10.5324 70.5188 10.7168 70.5976 10.8779C70.6799 11.0391 70.7927 11.1662 70.936 11.2593C71.0792 11.3524 71.2654 11.3989 71.4946 11.3989ZM77.6648 12.6074C77.2136 12.6074 76.809 12.5358 76.4509 12.3926C76.0929 12.2458 75.7885 12.0435 75.5378 11.7856C75.2908 11.5278 75.101 11.2288 74.9685 10.8887C74.836 10.5449 74.7698 10.1797 74.7698 9.79297V9.57812C74.7698 9.1377 74.8324 8.73486 74.9578 8.36963C75.0831 8.00439 75.2621 7.6875 75.4949 7.41895C75.7312 7.15039 76.0177 6.9445 76.3543 6.80127C76.6908 6.65446 77.0704 6.58105 77.4929 6.58105C77.9047 6.58105 78.2699 6.64909 78.5886 6.78516C78.9073 6.92122 79.1741 7.11458 79.3889 7.36523C79.6073 7.61589 79.7721 7.91667 79.8831 8.26758C79.9941 8.61491 80.0496 9.00163 80.0496 9.42773V10.0723H75.4304V9.04102H78.5295V8.92285C78.5295 8.70801 78.4902 8.51644 78.4114 8.34814C78.3362 8.17627 78.2216 8.0402 78.0676 7.93994C77.9137 7.83968 77.7167 7.78955 77.4768 7.78955C77.2727 7.78955 77.0973 7.83431 76.9504 7.92383C76.8036 8.01335 76.6837 8.13867 76.5906 8.2998C76.5011 8.46094 76.433 8.65072 76.3865 8.86914C76.3435 9.08398 76.322 9.32031 76.322 9.57812V9.79297C76.322 10.0257 76.3543 10.2406 76.4187 10.4375C76.4867 10.6344 76.5816 10.8045 76.7034 10.9478C76.8287 11.091 76.9791 11.202 77.1545 11.2808C77.3336 11.3595 77.5359 11.3989 77.7615 11.3989C78.0408 11.3989 78.3004 11.3452 78.5403 11.2378C78.7838 11.1268 78.9933 10.9603 79.1687 10.7383L79.9207 11.5547C79.7989 11.7301 79.6324 11.8984 79.4212 12.0596C79.2135 12.2207 78.9628 12.3532 78.6692 12.457C78.3756 12.5573 78.0408 12.6074 77.6648 12.6074Z" fill="black"/>
<defs>
<radialGradient id="paint0_radial_903_5726" cx="0" cy="0" r="1" gradientUnits="userSpaceOnUse" gradientTransform="translate(42.5 8.5) scale(56.5 282.5)">
<stop stop-color="#FFC72C"/>
<stop offset="0.145833" stop-color="#FFC72C"/>
<stop offset="0.3125" stop-color="#FAC022"/>
<stop offset="0.677083" stop-color="#EFAF09"/>
<stop offset="1" stop-color="#EFAF09"/>
</radialGradient>
</defs>
</svg>
