<svg width="66" height="17" viewBox="0 0 66 17" fill="none" xmlns="http://www.w3.org/2000/svg">
<rect x="0.5" y="0.5" width="65" height="16" rx="3.5" fill="#00A720" fill-opacity="0.1"/>
<path d="M8.76953 10.4536C8.76953 10.314 8.74805 10.1886 8.70508 10.0776C8.66569 9.96305 8.59049 9.85921 8.47949 9.76611C8.36849 9.66943 8.21273 9.57454 8.01221 9.48145C7.81169 9.38835 7.55208 9.29167 7.2334 9.19141C6.87891 9.07682 6.54232 8.94792 6.22363 8.80469C5.90853 8.66146 5.62923 8.49495 5.38574 8.30518C5.14583 8.11182 4.95605 7.88802 4.81641 7.63379C4.68034 7.37956 4.6123 7.08415 4.6123 6.74756C4.6123 6.42171 4.68392 6.1263 4.82715 5.86133C4.97038 5.59277 5.1709 5.36361 5.42871 5.17383C5.68652 4.98047 5.99089 4.83187 6.3418 4.72803C6.69629 4.62419 7.0848 4.57227 7.50732 4.57227C8.08382 4.57227 8.58691 4.67611 9.0166 4.88379C9.44629 5.09147 9.7793 5.37614 10.0156 5.73779C10.2555 6.09945 10.3755 6.51302 10.3755 6.97852H8.7749C8.7749 6.74935 8.72656 6.54883 8.62988 6.37695C8.53678 6.2015 8.39355 6.06364 8.2002 5.96338C8.01042 5.86312 7.77051 5.81299 7.48047 5.81299C7.20117 5.81299 6.96842 5.85596 6.78223 5.94189C6.59603 6.02425 6.45638 6.13704 6.36328 6.28027C6.27018 6.41992 6.22363 6.57747 6.22363 6.75293C6.22363 6.88542 6.25586 7.00537 6.32031 7.11279C6.38835 7.22021 6.48861 7.32048 6.62109 7.41357C6.75358 7.50667 6.9165 7.5944 7.10986 7.67676C7.30322 7.75911 7.52702 7.83968 7.78125 7.91846C8.20736 8.04736 8.58154 8.19238 8.90381 8.35352C9.22965 8.51465 9.50179 8.69548 9.72021 8.896C9.93864 9.09652 10.1034 9.32389 10.2144 9.57812C10.3254 9.83236 10.3809 10.1206 10.3809 10.4429C10.3809 10.783 10.3146 11.0874 10.1821 11.356C10.0496 11.6245 9.85807 11.8519 9.60742 12.0381C9.35677 12.2243 9.05778 12.3657 8.71045 12.4624C8.36312 12.5591 7.97461 12.6074 7.54492 12.6074C7.1582 12.6074 6.77686 12.5573 6.40088 12.457C6.0249 12.3532 5.68294 12.1974 5.375 11.9897C5.07064 11.7821 4.82715 11.5171 4.64453 11.1948C4.46191 10.8726 4.37061 10.4912 4.37061 10.0508H5.9873C5.9873 10.2943 6.0249 10.5002 6.1001 10.6685C6.17529 10.8368 6.28092 10.9728 6.41699 11.0767C6.55664 11.1805 6.72135 11.2557 6.91113 11.3022C7.10449 11.3488 7.31576 11.3721 7.54492 11.3721C7.82422 11.3721 8.05339 11.3327 8.23242 11.2539C8.41504 11.1751 8.54932 11.0659 8.63525 10.9263C8.72477 10.7866 8.76953 10.6291 8.76953 10.4536ZM14.9774 11.1089V6.68848H16.5243V12.5H15.0687L14.9774 11.1089ZM15.1493 9.9165L15.6058 9.90576C15.6058 10.2925 15.561 10.6523 15.4715 10.9854C15.382 11.3148 15.2477 11.6012 15.0687 11.8447C14.8897 12.0846 14.6641 12.2726 14.3919 12.4087C14.1198 12.5412 13.7993 12.6074 13.4305 12.6074C13.1476 12.6074 12.8862 12.568 12.6463 12.4893C12.41 12.4069 12.2059 12.2798 12.034 12.1079C11.8657 11.9325 11.7332 11.7087 11.6366 11.4365C11.5435 11.1608 11.4969 10.8296 11.4969 10.4429V6.68848H13.0438V10.4536C13.0438 10.6255 13.0635 10.7705 13.1029 10.8887C13.1458 11.0068 13.2049 11.1035 13.2801 11.1787C13.3553 11.2539 13.443 11.3076 13.5433 11.3398C13.6471 11.3721 13.7617 11.3882 13.8871 11.3882C14.2057 11.3882 14.4564 11.3237 14.639 11.1948C14.8252 11.0659 14.9559 10.8905 15.0311 10.6685C15.1099 10.4429 15.1493 10.1922 15.1493 9.9165ZM17.8659 4.25H19.4128V11.168L19.257 12.5H17.8659V4.25ZM23.092 9.53516V9.64795C23.092 10.0812 23.0454 10.4787 22.9523 10.8403C22.8628 11.202 22.7232 11.5153 22.5334 11.7803C22.3436 12.0417 22.1073 12.2458 21.8244 12.3926C21.5451 12.5358 21.2157 12.6074 20.8361 12.6074C20.4816 12.6074 20.1737 12.5358 19.9123 12.3926C19.6545 12.2493 19.4378 12.047 19.2624 11.7856C19.0869 11.5243 18.9455 11.2181 18.8381 10.8672C18.7306 10.5163 18.6501 10.1331 18.5964 9.71777V9.4707C18.6501 9.05534 18.7306 8.6722 18.8381 8.32129C18.9455 7.97038 19.0869 7.66423 19.2624 7.40283C19.4378 7.14144 19.6545 6.93913 19.9123 6.7959C20.1701 6.65267 20.4745 6.58105 20.8254 6.58105C21.2085 6.58105 21.5415 6.65446 21.8244 6.80127C22.1109 6.9445 22.3472 7.1486 22.5334 7.41357C22.7232 7.67497 22.8628 7.98649 22.9523 8.34814C23.0454 8.70622 23.092 9.10189 23.092 9.53516ZM21.5451 9.64795V9.53516C21.5451 9.29883 21.5272 9.07682 21.4914 8.86914C21.4592 8.65788 21.4019 8.47347 21.3195 8.31592C21.2372 8.15479 21.1244 8.02767 20.9811 7.93457C20.8415 7.84147 20.6607 7.79492 20.4387 7.79492C20.2274 7.79492 20.0484 7.83073 19.9015 7.90234C19.7547 7.97396 19.633 8.07422 19.5363 8.20312C19.4432 8.33203 19.3734 8.486 19.3268 8.66504C19.2803 8.84049 19.2516 9.03385 19.2409 9.24512V9.94873C19.2516 10.2316 19.2982 10.4823 19.3805 10.7007C19.4665 10.9155 19.5954 11.0856 19.7673 11.2109C19.9427 11.3327 20.1701 11.3936 20.4494 11.3936C20.6678 11.3936 20.8486 11.3506 20.9919 11.2646C21.1351 11.1787 21.2461 11.057 21.3249 10.8994C21.4072 10.7419 21.4645 10.5575 21.4968 10.3462C21.529 10.1313 21.5451 9.8986 21.5451 9.64795ZM27.3555 10.894C27.3555 10.783 27.3233 10.6828 27.2588 10.5933C27.1944 10.5037 27.0744 10.4214 26.8989 10.3462C26.7271 10.2674 26.4782 10.1958 26.1524 10.1313C25.8587 10.0669 25.5848 9.98633 25.3306 9.88965C25.0799 9.78939 24.8615 9.66943 24.6753 9.52979C24.4927 9.39014 24.3495 9.22542 24.2456 9.03564C24.1418 8.84229 24.0899 8.62207 24.0899 8.375C24.0899 8.13151 24.1418 7.90234 24.2456 7.6875C24.353 7.47266 24.5052 7.28288 24.7022 7.11816C24.9027 6.94987 25.1462 6.81917 25.4326 6.72607C25.7227 6.62939 26.0485 6.58105 26.4102 6.58105C26.9151 6.58105 27.3483 6.66162 27.71 6.82275C28.0752 6.98389 28.3545 7.20589 28.5479 7.48877C28.7448 7.76807 28.8433 8.08675 28.8433 8.44482H27.2964C27.2964 8.29443 27.2642 8.16016 27.1997 8.04199C27.1389 7.92025 27.0422 7.82536 26.9097 7.75732C26.7808 7.68571 26.6125 7.6499 26.4048 7.6499C26.2329 7.6499 26.0843 7.68034 25.959 7.74121C25.8337 7.7985 25.737 7.87728 25.669 7.97754C25.6045 8.07422 25.5723 8.18164 25.5723 8.2998C25.5723 8.38932 25.5902 8.46989 25.626 8.5415C25.6654 8.60954 25.728 8.6722 25.814 8.72949C25.8999 8.78678 26.0109 8.84049 26.147 8.89062C26.2866 8.93717 26.4585 8.98014 26.6626 9.01953C27.0816 9.10547 27.4557 9.21826 27.7852 9.35791C28.1146 9.49398 28.376 9.68018 28.5694 9.9165C28.7627 10.1493 28.8594 10.4554 28.8594 10.835C28.8594 11.0928 28.8021 11.3291 28.6875 11.5439C28.5729 11.7588 28.4082 11.9468 28.1934 12.1079C27.9785 12.2655 27.7207 12.389 27.4199 12.4785C27.1227 12.5645 26.7879 12.6074 26.4155 12.6074C25.8749 12.6074 25.4165 12.5107 25.0405 12.3174C24.6682 12.124 24.3853 11.8787 24.1919 11.5815C24.0021 11.2808 23.9072 10.9728 23.9072 10.6577H25.3736C25.3807 10.869 25.4344 11.0391 25.5347 11.168C25.6385 11.2969 25.7692 11.39 25.9268 11.4473C26.0879 11.5046 26.2616 11.5332 26.4478 11.5332C26.6483 11.5332 26.8148 11.5063 26.9473 11.4526C27.0798 11.3953 27.18 11.3201 27.2481 11.2271C27.3197 11.1304 27.3555 11.0194 27.3555 10.894ZM32.4247 11.3989C32.6144 11.3989 32.7827 11.3631 32.9296 11.2915C33.0764 11.2163 33.1909 11.1125 33.2733 10.98C33.3592 10.8439 33.404 10.6846 33.4076 10.502H34.8631C34.8596 10.9102 34.7504 11.2736 34.5355 11.5923C34.3207 11.9074 34.0324 12.1562 33.6708 12.3389C33.3091 12.5179 32.9045 12.6074 32.4569 12.6074C32.0057 12.6074 31.6118 12.5322 31.2753 12.3818C30.9422 12.2314 30.6647 12.0238 30.4427 11.7588C30.2207 11.4902 30.0542 11.1787 29.9432 10.8242C29.8322 10.4661 29.7767 10.083 29.7767 9.6748V9.51904C29.7767 9.10726 29.8322 8.72412 29.9432 8.36963C30.0542 8.01156 30.2207 7.70003 30.4427 7.43506C30.6647 7.1665 30.9422 6.95703 31.2753 6.80664C31.6083 6.65625 31.9986 6.58105 32.4462 6.58105C32.9224 6.58105 33.3395 6.67236 33.6976 6.85498C34.0593 7.0376 34.3421 7.29899 34.5462 7.63916C34.7539 7.97575 34.8596 8.375 34.8631 8.83691H33.4076C33.404 8.64355 33.3628 8.4681 33.284 8.31055C33.2088 8.15299 33.0978 8.02767 32.951 7.93457C32.8078 7.83789 32.6306 7.78955 32.4193 7.78955C32.1937 7.78955 32.0093 7.83789 31.8661 7.93457C31.7228 8.02767 31.6118 8.15658 31.5331 8.32129C31.4543 8.48242 31.3988 8.66683 31.3666 8.87451C31.3379 9.07861 31.3236 9.29346 31.3236 9.51904V9.6748C31.3236 9.90039 31.3379 10.117 31.3666 10.3247C31.3952 10.5324 31.4489 10.7168 31.5277 10.8779C31.6101 11.0391 31.7228 11.1662 31.8661 11.2593C32.0093 11.3524 32.1955 11.3989 32.4247 11.3989ZM37.467 7.95605V12.5H35.9201V6.68848H37.3757L37.467 7.95605ZM39.218 6.65088L39.1911 8.08496C39.1159 8.07422 39.0246 8.06527 38.9172 8.05811C38.8133 8.04736 38.7185 8.04199 38.6325 8.04199C38.4141 8.04199 38.2243 8.07064 38.0632 8.12793C37.9056 8.18164 37.7731 8.26221 37.6657 8.36963C37.5619 8.47705 37.4831 8.60775 37.4294 8.76172C37.3793 8.91569 37.3506 9.09115 37.3435 9.28809L37.0319 9.19141C37.0319 8.81543 37.0695 8.46989 37.1447 8.15479C37.2199 7.8361 37.3291 7.55859 37.4724 7.32227C37.6192 7.08594 37.7982 6.90332 38.0095 6.77441C38.2207 6.64551 38.4624 6.58105 38.7346 6.58105C38.8205 6.58105 38.9082 6.58822 38.9978 6.60254C39.0873 6.61328 39.1607 6.62939 39.218 6.65088ZM41.7412 6.68848V12.5H40.189V6.68848H41.7412ZM40.0923 5.17383C40.0923 4.94824 40.1711 4.76204 40.3287 4.61523C40.4862 4.46842 40.6975 4.39502 40.9624 4.39502C41.2238 4.39502 41.4333 4.46842 41.5909 4.61523C41.752 4.76204 41.8326 4.94824 41.8326 5.17383C41.8326 5.39941 41.752 5.58561 41.5909 5.73242C41.4333 5.87923 41.2238 5.95264 40.9624 5.95264C40.6975 5.95264 40.4862 5.87923 40.3287 5.73242C40.1711 5.58561 40.0923 5.39941 40.0923 5.17383ZM43.1796 4.25H44.7264V11.168L44.5707 12.5H43.1796V4.25ZM48.4056 9.53516V9.64795C48.4056 10.0812 48.3591 10.4787 48.266 10.8403C48.1765 11.202 48.0368 11.5153 47.847 11.7803C47.6573 12.0417 47.4209 12.2458 47.1381 12.3926C46.8588 12.5358 46.5293 12.6074 46.1498 12.6074C45.7953 12.6074 45.4873 12.5358 45.226 12.3926C44.9681 12.2493 44.7515 12.047 44.5761 11.7856C44.4006 11.5243 44.2592 11.2181 44.1517 10.8672C44.0443 10.5163 43.9637 10.1331 43.91 9.71777V9.4707C43.9637 9.05534 44.0443 8.6722 44.1517 8.32129C44.2592 7.97038 44.4006 7.66423 44.5761 7.40283C44.7515 7.14144 44.9681 6.93913 45.226 6.7959C45.4838 6.65267 45.7881 6.58105 46.139 6.58105C46.5222 6.58105 46.8552 6.65446 47.1381 6.80127C47.4245 6.9445 47.6609 7.1486 47.847 7.41357C48.0368 7.67497 48.1765 7.98649 48.266 8.34814C48.3591 8.70622 48.4056 9.10189 48.4056 9.53516ZM46.8588 9.64795V9.53516C46.8588 9.29883 46.8409 9.07682 46.8051 8.86914C46.7728 8.65788 46.7155 8.47347 46.6332 8.31592C46.5508 8.15479 46.438 8.02767 46.2948 7.93457C46.1552 7.84147 45.9743 7.79492 45.7523 7.79492C45.5411 7.79492 45.362 7.83073 45.2152 7.90234C45.0684 7.97396 44.9467 8.07422 44.85 8.20312C44.7569 8.33203 44.6871 8.486 44.6405 8.66504C44.594 8.84049 44.5653 9.03385 44.5546 9.24512V9.94873C44.5653 10.2316 44.6119 10.4823 44.6942 10.7007C44.7802 10.9155 44.9091 11.0856 45.0809 11.2109C45.2564 11.3327 45.4838 11.3936 45.7631 11.3936C45.9815 11.3936 46.1623 11.3506 46.3055 11.2646C46.4488 11.1787 46.5598 11.057 46.6386 10.8994C46.7209 10.7419 46.7782 10.5575 46.8104 10.3462C46.8427 10.1313 46.8588 9.8986 46.8588 9.64795ZM52.2019 12.6074C51.7507 12.6074 51.3461 12.5358 50.988 12.3926C50.6299 12.2458 50.3256 12.0435 50.0749 11.7856C49.8279 11.5278 49.6381 11.2288 49.5056 10.8887C49.3731 10.5449 49.3069 10.1797 49.3069 9.79297V9.57812C49.3069 9.1377 49.3695 8.73486 49.4948 8.36963C49.6202 8.00439 49.7992 7.6875 50.032 7.41895C50.2683 7.15039 50.5547 6.9445 50.8913 6.80127C51.2279 6.65446 51.6075 6.58105 52.03 6.58105C52.4418 6.58105 52.807 6.64909 53.1257 6.78516C53.4444 6.92122 53.7112 7.11458 53.926 7.36523C54.1444 7.61589 54.3091 7.91667 54.4201 8.26758C54.5311 8.61491 54.5866 9.00163 54.5866 9.42773V10.0723H49.9675V9.04102H53.0666V8.92285C53.0666 8.70801 53.0272 8.51644 52.9485 8.34814C52.8733 8.17627 52.7587 8.0402 52.6047 7.93994C52.4507 7.83968 52.2538 7.78955 52.0139 7.78955C51.8098 7.78955 51.6343 7.83431 51.4875 7.92383C51.3407 8.01335 51.2208 8.13867 51.1277 8.2998C51.0381 8.46094 50.9701 8.65072 50.9236 8.86914C50.8806 9.08398 50.8591 9.32031 50.8591 9.57812V9.79297C50.8591 10.0257 50.8913 10.2406 50.9558 10.4375C51.0238 10.6344 51.1187 10.8045 51.2404 10.9478C51.3658 11.091 51.5162 11.202 51.6916 11.2808C51.8707 11.3595 52.073 11.3989 52.2986 11.3989C52.5779 11.3989 52.8375 11.3452 53.0774 11.2378C53.3209 11.1268 53.5303 10.9603 53.7058 10.7383L54.4577 11.5547C54.336 11.7301 54.1695 11.8984 53.9582 12.0596C53.7505 12.2207 53.4999 12.3532 53.2063 12.457C52.9126 12.5573 52.5779 12.6074 52.2019 12.6074ZM59.0596 11.2324V4.25H60.6172V12.5H59.2154L59.0596 11.2324ZM55.3858 9.66406V9.55127C55.3858 9.10726 55.4359 8.70443 55.5362 8.34277C55.6365 7.97754 55.7833 7.66423 55.9766 7.40283C56.17 7.14144 56.4081 6.93913 56.691 6.7959C56.9739 6.65267 57.2961 6.58105 57.6578 6.58105C57.9979 6.58105 58.2951 6.65267 58.5494 6.7959C58.8072 6.93913 59.0256 7.14323 59.2046 7.4082C59.3873 7.6696 59.5341 7.97933 59.6451 8.3374C59.7561 8.69189 59.8366 9.0804 59.8868 9.50293V9.75C59.8366 10.1546 59.7561 10.5306 59.6451 10.8779C59.5341 11.2253 59.3873 11.5296 59.2046 11.791C59.0256 12.0488 58.8072 12.2493 58.5494 12.3926C58.2916 12.5358 57.9908 12.6074 57.647 12.6074C57.2854 12.6074 56.9631 12.534 56.6802 12.3872C56.4009 12.2404 56.1646 12.0345 55.9712 11.7695C55.7815 11.5046 55.6365 11.193 55.5362 10.835C55.4359 10.4769 55.3858 10.0866 55.3858 9.66406ZM56.9327 9.55127V9.66406C56.9327 9.90397 56.9506 10.1278 56.9864 10.3354C57.0258 10.5431 57.0884 10.7275 57.1744 10.8887C57.2639 11.0462 57.3785 11.1698 57.5181 11.2593C57.6614 11.3452 57.835 11.3882 58.0391 11.3882C58.3041 11.3882 58.5225 11.3291 58.6944 11.2109C58.8663 11.0892 58.997 10.9227 59.0865 10.7114C59.1796 10.5002 59.2333 10.2567 59.2476 9.98096V9.27734C59.2369 9.05176 59.2046 8.84945 59.1509 8.67041C59.1008 8.48779 59.0256 8.33203 58.9254 8.20312C58.8287 8.07422 58.7069 7.97396 58.5601 7.90234C58.4169 7.83073 58.2468 7.79492 58.0499 7.79492C57.8493 7.79492 57.6775 7.84147 57.5342 7.93457C57.391 8.02409 57.2746 8.14762 57.1851 8.30518C57.0992 8.46273 57.0347 8.64893 56.9918 8.86377C56.9524 9.07503 56.9327 9.3042 56.9327 9.55127Z" fill="#3A843F"/>
<rect x="0.5" y="0.5" width="65" height="16" rx="3.5" stroke="#3A843F"/>
</svg>
